<svg xmlns="http://www.w3.org/2000/svg" xmlns:xlink="http://www.w3.org/1999/xlink" viewBox="0 0 649.78 104.86"><defs><style>.cls-1{fill:blue;}.cls-2{fill:#21ba45;stroke:#fff;stroke-miterlimit:10;stroke-width:0.25px;}.cls-3{fill:url(#linear-gradient);}.cls-4{fill:#005be3;}</style><linearGradient id="linear-gradient" y1="53.29" x2="177.1" y2="53.29" gradientUnits="userSpaceOnUse"><stop offset="0" stop-color="#21ba45"/><stop offset="0.01" stop-color="#1fb54e"/><stop offset="0.06" stop-color="#179d75"/><stop offset="0.12" stop-color="#108897"/><stop offset="0.18" stop-color="#0a78b3"/><stop offset="0.24" stop-color="#066bc8"/><stop offset="0.31" stop-color="#0262d7"/><stop offset="0.4" stop-color="#015de0"/><stop offset="0.52" stop-color="#005be3"/><stop offset="0.68" stop-color="#005de1"/><stop offset="0.76" stop-color="#0063d9"/><stop offset="0.82" stop-color="#006dcc"/><stop offset="0.87" stop-color="#007cb9"/><stop offset="0.92" stop-color="#008ea1"/><stop offset="0.96" stop-color="#00a583"/><stop offset="1" stop-color="#00bf62"/></linearGradient></defs><g id="Layer_2" data-name="Layer 2"><g id="Layer_1-2" data-name="Layer 1"><path class="cls-1" d="M158,45.17v2.06q-.21-1.32-.54-2.61Z"/><polygon class="cls-2" points="121.04 0.13 140.24 19.32 160.41 19.32 160.41 39.88 180.32 59.79 180.32 0.13 121.04 0.13"/><path class="cls-3" d="M158,45.17l-.54-.54,0,.12-9.74-9.91-18.61.61,26.73,29.41A32,32,0,0,1,95,58.34a30.91,30.91,0,0,1-.56-6A31.31,31.31,0,0,1,95.06,46a25.81,25.81,0,0,1,1-5.23h0A26.58,26.58,0,0,1,116.37,22a31.84,31.84,0,0,1,18.25-.54L115.18,1.71A52,52,0,0,0,85,21.09C75,10.25,59.81,3.83,41.81,3.83H0v33.8c4,6.12,11.24,6.9,11.24,6.9a67.88,67.88,0,0,1,12.69,3.25c.66.25,1.31.5,1.95.76A49.88,49.88,0,0,1,54,76.36a40.18,40.18,0,0,1,1.71,5.18c.2.8.3,1.29.31,1.41l-.66-1.24c-.88-1.59-1.77-3.12-2.67-4.57C43.65,62.37,33.9,55.33,25.88,52.06c-.66-.27-1.32-.52-1.95-.74-9.11-3.14-15.58-1.5-15.58-1.5C2.35,58.71.67,85.36,27.8,86.08c15,.4,25.24,6.11,31.37,11.13.45.37.88.72,1.28,1.08a39.35,39.35,0,0,1,5.12,5.41c.56.73.83,1.16.83,1.16,0-.5-.08-1-.13-1.45l1.31-.55c1.11-.48,2.2-1,3.26-1.53a50,50,0,0,0,17-14.22,51.75,51.75,0,0,0,38.52,17.16h1.19a50.73,50.73,0,0,0,49.5-39.69ZM65.35,74a27.36,27.36,0,0,1-3.18,3.28C61.61,75,61,72.8,60.42,70.76c-7-23.09-17.61-29.23-23.65-31.66a9.24,9.24,0,0,0-7,0,13.79,13.79,0,0,1-3.9.63V27.11H41.81c17,0,30,12.4,30,28.49A28.61,28.61,0,0,1,65.35,74Z"/><path class="cls-4" d="M245.5,45.92c0,12.67-9.3,20.87-22.64,20.87h-17.5V25.18h17.5C236.2,25.18,245.5,33.32,245.5,45.92Zm-12.54,0c0-5.75-4.28-9.85-10.1-9.85h-5.2V55.9h5.2A9.71,9.71,0,0,0,233,45.92Z"/><path class="cls-4" d="M275.55,60.85h-16l-2.14,5.94H244.28l17.25-41.61h12.06l17.25,41.61H277.75Zm-3.61-9.91L267.53,39l-4.34,11.93Z"/><path class="cls-4" d="M349.34,25.18,335.76,67H324.38l-7.47-23.92L309.45,67H298.07L284.48,25.18h13.1l6.48,22.76,7.83-22.76h10L329.7,48l6.55-22.82Z"/><path class="cls-4" d="M364.7,25.18V66.79H352.4V25.18Z"/><path class="cls-4" d="M407.9,55.1c0,7-5.38,11.69-14.87,11.69H370.82V25.18H391.5c9.12,0,14.56,4.41,14.56,11.14,0,3.61-2,7.83-5.69,9.23A9.51,9.51,0,0,1,407.9,55.1ZM383.12,34.79v7.09h6.12c3.12,0,4.89-1.59,4.89-3.73,0-2.32-1.71-3.36-4.89-3.36Zm12.73,18.6c0-2.21-1.59-3.37-5.08-3.37h-7.65v7h7.52C394.26,57.06,395.85,55.65,395.85,53.39Z"/><path class="cls-4" d="M470.56,44.82v22h-3.92l-.37-8.51c-3,5.57-8.32,9.24-15.9,9.24a21.15,21.15,0,0,1-21.54-21.23,21.47,21.47,0,0,1,21.84-21.84c9.06,0,17.44,5.2,19.76,14.5h-5.2c-2.08-6.73-8.38-10-14.5-10-9.6,0-17,7.22-17,17.32A16.45,16.45,0,0,0,450.37,63c8.5,0,13.89-5.93,15.05-13.7H449.94V44.82Z"/><path class="cls-4" d="M498,51.92H487.45V66.79h-4.84V25.18h15.73c9.36,0,15.91,5.14,15.91,13.34,0,6.61-4.23,11.26-10.71,12.79l12.6,15.48h-6Zm-10.58-4.47h10.76c6.49,0,11.26-3.36,11.26-8.93s-4.77-8.87-11.26-8.87H487.45Z"/><path class="cls-4" d="M564,46a21.66,21.66,0,1,1-21.66-21.53A21.51,21.51,0,0,1,564,46Zm-4.89,0a16.77,16.77,0,1,0-33.53,0,16.77,16.77,0,1,0,33.53,0Z"/><path class="cls-4" d="M608.29,49c0,11.08-7.09,18.54-17.8,18.54S572.68,60.06,572.68,49V25.18h4.84V49c0,8.14,5.14,14,13,14s13-5.87,13-14V25.18h4.83Z"/><path class="cls-4" d="M649.78,39c0,8.63-6.67,14.32-16.64,14.32H623.9V66.79h-4.84V25.18h14.69C643.36,25.18,649.78,30.69,649.78,39ZM645,39c0-5.63-4.59-9.42-11.44-9.42H623.9V48.86h9.67C640.42,48.86,645,44.94,645,39Z"/></g></g></svg>